<svg
		version="1.1"
		id="Layer_1"
		xmlns="http://www.w3.org/2000/svg"
		x="0px"
		y="0px"
		width="100%"
		viewBox="200 180 620 600"
	>
		<path
			fill="#146A38"
			opacity="1.000000"
			stroke="none"
			d="
        M515.036011,704.147461 
        C534.260864,660.080811 561.008118,621.116516 589.878479,583.496338 
        C621.626526,542.126343 655.026062,502.015900 685.000977,459.295746 
        C702.232239,434.737885 718.773193,409.718506 732.359497,382.889343 
        C733.140198,381.347595 734.548035,379.894440 733.942444,377.813263 
        C731.711609,377.086731 731.018921,378.909149 730.070984,380.119171 
        C695.236816,424.585144 658.633484,467.575592 621.732056,510.323395 
        C594.408020,541.976501 567.391968,573.874084 543.996216,608.657532 
        C525.044434,636.833923 508.544189,666.232483 497.273285,698.384338 
        C496.902313,699.442566 496.305542,700.421753 495.821320,701.422607 
        C493.797272,700.789734 494.116608,699.234619 494.042236,698.051086 
        C492.236206,669.310547 489.178131,640.626770 490.001465,611.764160 
        C491.165924,570.942749 495.876892,530.674622 511.240540,492.462341 
        C524.173340,460.296143 544.428772,433.018585 569.097778,408.779053 
        C590.595581,387.655396 614.939697,370.164886 639.085999,352.379761 
        C666.117798,332.469177 692.060974,311.351349 712.903564,284.703094 
        C730.848206,261.760071 742.515625,236.217041 744.662415,206.809692 
        C744.730042,205.883347 744.386597,204.780029 745.513916,204.156540 
        C746.545959,204.168625 746.850647,204.997162 747.223938,205.718384 
        C765.232971,240.506241 782.263184,275.742249 793.987549,313.238770 
        C802.591675,340.756165 808.227539,368.921173 811.440552,397.602875 
        C818.757385,462.918060 803.065430,522.905579 769.275452,578.494202 
        C746.564514,615.856384 715.160767,644.462158 677.530701,666.506470 
        C653.117859,680.807739 627.064392,691.332520 600.662292,701.177856 
        C581.752075,708.229553 563.054382,715.813232 546.735168,728.057373 
        C522.695068,746.094666 508.170593,769.957275 503.334442,799.661316 
        C503.043335,801.449341 502.887207,803.271729 501.685852,804.798035 
        C493.856140,794.451660 501.520416,736.477844 515.036011,704.147461 
      z"
		/>
		<path
			fill="#9ACC4E"
			opacity="1.000000"
			stroke="none"
			d="
        M207.778931,401.010986 
        C208.475632,371.749969 214.742935,344.106262 224.818558,317.280548 
        C236.408035,286.424225 251.325790,257.279480 270.396271,230.334671 
        C271.591156,228.646393 272.438873,226.482117 275.389679,225.620956 
        C276.311981,231.234604 277.183289,236.710846 278.114380,242.176880 
        C284.288574,278.422150 302.393616,307.407135 331.866730,329.146515 
        C350.767212,343.087524 370.296173,356.175323 389.228668,370.074310 
        C409.917694,385.262848 428.375641,402.602173 441.238495,425.335327 
        C450.581299,441.847382 455.462341,459.737244 459.084259,478.068054 
        C463.230225,499.051117 464.291718,520.346130 464.057983,541.673767 
        C463.864502,559.330994 461.860626,576.869202 459.087219,594.307739 
        C458.883789,595.586792 458.367249,596.816101 458.027496,597.963135 
        C456.382324,598.181213 456.156494,597.066101 455.749786,596.221252 
        C438.212006,559.789795 414.664581,527.348328 389.402161,496.024139 
        C356.012146,454.622131 319.701477,415.777588 284.492096,375.968658 
        C283.331055,374.655945 282.432465,372.871338 279.885681,372.697052 
        C279.717255,375.608215 281.445892,377.671417 282.704926,379.846191 
        C299.867310,409.491852 320.322296,436.828522 341.563385,463.607880 
        C364.857239,492.975159 388.808868,521.849792 409.490356,553.188416 
        C428.614594,582.167236 446.687439,611.683960 455.644775,645.766235 
        C459.769196,661.459473 461.686890,677.424683 462.374603,693.579895 
        C462.414093,694.507385 462.811584,695.602234 461.764648,696.288330 
        C460.882629,696.503052 460.511505,695.859802 460.236176,695.315430 
        C442.909149,661.056274 414.875916,638.316101 380.954285,622.112122 
        C363.376282,613.715271 345.410004,606.134094 327.782135,597.838135 
        C299.916931,584.724365 274.642090,568.093567 254.894211,543.876831 
        C233.780563,517.985168 221.425903,488.097137 213.718170,455.979492 
        C209.421204,438.074402 207.793106,419.878967 207.778931,401.010986 
      z"
		/>
		<path
			fill="#F9C424"
			opacity="1.000000"
			stroke="none"
			d="
        M489.016418,198.796600 
        C517.096863,192.267471 542.771240,197.591324 566.268677,212.873886 
        C589.622009,228.062744 603.963196,249.643967 608.623474,277.286896 
        C610.147339,286.325745 611.490051,295.457550 606.666382,304.136200 
        C605.987183,305.358337 605.836304,307.081482 605.977051,308.520233 
        C607.522217,324.315582 600.727722,337.331146 592.188416,349.681305 
        C577.176147,371.393158 556.763245,384.823730 530.695618,389.777435 
        C478.364075,399.722076 426.141724,365.559601 415.955261,314.519745 
        C405.296844,261.115204 435.715881,212.701172 489.016418,198.796600 
      z"
		/>
	</svg>